# xmcd
#
# Track frame offsets: 
#        150
#        13755
#        30910
#        49519
#        64894
#        81033
#        102201
#        120322
#        136906
#        154221
#        173789
#        202457
#
# Disc length: 4440 seconds
#
# Revision: 1
# Processed by: cddbd v1.5.2PL0 Copyright (c) Steve Scherf et al.
# Submitted via: ExactAudioCopy v0.99pb5
#
DISCID=9811560c
DTITLE=Suburban Tribe - ¡Revolt Now!
DYEAR=2006
DGENRE=Heavy Metal
TTITLE0=Complications
TTITLE1=Nothingness
TTITLE2=Nevermore
TTITLE3=Bound By Grace
TTITLE4=You Can't Break What's Already Broken
TTITLE5=Carved In Silence
TTITLE6=While The World Awaits
TTITLE7=Ad Infinitum
TTITLE8=Gravity
TTITLE9=The Time Is Now
TTITLE10=Hollow Inside
TTITLE11=data
EXTD=
EXTT0=
EXTT1=
EXTT2=
EXTT3=
EXTT4=
EXTT5=
EXTT6=
EXTT7=
EXTT8=
EXTT9=
EXTT10=
EXTT11=
PLAYORDER=
